<?xml version="1.0" encoding="UTF-8"?>
<svg id="Layer_1" xmlns="http://www.w3.org/2000/svg" xmlns:xlink="http://www.w3.org/1999/xlink" version="1.1" viewBox="0 0 234 203">
  <!-- Generator: Adobe Illustrator 29.1.0, SVG Export Plug-In . SVG Version: 2.1.0 Build 142)  -->
  <defs>
    <style>
      .st0 {
        fill: none;
      }

      .st1 {
        fill: #d51317;
      }

      .st2 {
        clip-path: url(#clippath);
      }
    </style>
    <clipPath id="clippath">
      <rect class="st0" x="37.3" y="23.1" width="154.5" height="156.1"/>
    </clipPath>
  </defs>
  <g class="st2">
    <path class="st1" d="M144.1,119.3,144.9,120s0,0,0,0c0,0,0,0,0,0M144.9,120s0,0,0,0c0,0,0,0,0,0M134.2,130.6s0,0,0,0c0,0,0,0,0,0M134.2,130.6s0,0,0,0c0,0,0,0,0,0M143.5,143.8c-.8,0-1.6-.2-2.3-.6-5.3-3-8.4-4.8-10.3-6-1.2.7-2.4,1.5-3.6,2.2l-3.8-6.5c1.3-.8,2.6-1.6,3.9-2.4l1.7-1c1.5-.9,3.4-.7,4.7.5.4.3,2.3,1.6,9.9,5.9,2.4-2,4.6-4.2,6.6-6.6-4.3-7.6-5.6-9.5-5.9-9.9-.5-.5-.8-1.1-1-1.8-.2-1,0-2,.5-2.9,1.5-2.4,2.8-5,3.8-7.7l7.1,2.7c-.9,2.3-2,4.6-3.2,6.8,1.2,1.9,3.1,5,6.1,10.4,1.2,2.2.4,4.9-.9,6.4-2.7,3.2-5.7,6.2-8.9,8.9-1,.9-2.6,1.5-4.1,1.5M108.9,29.3s0,0,0,0c0,0,0,0,0,0M97.1,41.1s0,0,0,0c0,0,0,0,0,0M97.1,41.1h0s0,0,0,0M112.2,41.1s0,0,0,0c0,0,0,0,0,0M112.2,41.1h0s0,0,0,0M75.1,50.2s0,0,0,0c0,0,0,0,0,0M75.1,50.2s0,0,0,0c0,0,0,0,0,0M75.1,50.2h0,0ZM134.2,50.2s0,0,0,0c0,0,0,0,0,0M134.2,50.2s0,0,0,0c0,0,0,0,0,0M134.2,50.2h0s0,0,0,0ZM64.5,60.9s0,0,0,0c0,0,0,0,0,0M64.5,60.9s0,0,0,0c0,0,0,0,0,0M144.8,60.9s0,0,0,0c0,0,0,0,0,0M144.8,60.9s0,0,0,0c0,0,0,0,0,0M65.2,61.5h0,0ZM154,82.9s0,0,0,0c0,0,0,0,0,0M154,82.9h0,0ZM154,82.9h0,0ZM55.3,82.9s0,0,0,0c0,0,0,0,0,0M55.3,82.9c.5.1,1,0,1,0-.3,0-.7,0-1,0M45.2,84.8s0,0,0,0c0,0,0,0,0,0M43.6,86.2s0,0,0,0c0,0,0,0,0,0M55.4,98s0,0,0,0c0,0,0,0,0,0M55.4,98h0,0ZM64.4,120h0,0ZM64.4,120s0,0,0,0c0,0,0,0,0,0M64.4,120s0,0,0,0c0,0,0,0,0,0M75.1,130.6s0,0,0,0c0,0,0,0,0,0M75.1,130.6s0,0,0,0c0,0,0,0,0,0M66.6,136.4s0,0,0,0c0,0,0,0,0,0M97.1,139.7h0s0,0,0,0ZM97.1,139.7s0,0,0,0c0,0,0,0,0,0M97.1,139.7s0,0,0,0c0,0,0,0,0,0M99,149.9s0,0,0,0c0,0,0,0,0,0M104.7,157.8c-2.1,0-4.3-.1-6.4-.3-2-.2-4.5-1.5-5.2-3.9-1.7-5.9-2.6-9.4-3-11.6-4-1.1-7.9-2.7-11.6-4.8-1.9,1.2-5,3.1-10.4,6.1-2.2,1.2-4.9.4-6.4-.9-3.2-2.7-6.2-5.7-8.9-8.9-1.3-1.6-2.1-4.2-.9-6.4,3-5.4,4.8-8.5,6.1-10.4-2-3.7-3.6-7.5-4.8-11.5-2.2-.5-5.7-1.4-11.6-3.1-2.4-.7-3.7-3.2-3.9-5.2-.4-4.2-.4-8.5,0-12.7.2-2,1.5-4.5,3.9-5.2,5.9-1.7,9.4-2.6,11.6-3,1.1-4.1,2.7-7.9,4.8-11.6-1.2-1.9-3.1-5-6.1-10.4,0,0-.1-.2-.1-.3-1-2.2-.2-4.6,1.1-6.1,2.7-3.2,5.7-6.2,9-8.9,1.5-1.2,4-2,6.1-1.1,0,0,.2,0,.3.1,5.4,3,8.5,4.9,10.4,6.1,3.7-2,7.5-3.6,11.5-4.8.5-2.2,1.4-5.7,3.1-11.6,0-.1,0-.2.1-.3.8-2.2,3.2-3.4,5.1-3.6,4.2-.4,8.4-.4,12.7,0,2,.2,4.5,1.5,5.2,3.9,1.7,5.9,2.6,9.5,3,11.6,4,1.1,7.9,2.7,11.5,4.8,1.9-1.2,5-3.1,10.4-6.1,2.2-1.2,4.9-.4,6.4.9,3.2,2.7,6.2,5.7,8.9,9,1.2,1.5,2,4,1,6.2,0,0,0,.2-.1.3-3,5.4-4.9,8.5-6.1,10.4,2,3.7,3.7,7.5,4.8,11.5,2.2.5,5.7,1.4,11.6,3,.1,0,.2,0,.3.1,2.2.8,3.4,3.2,3.6,5.1.4,4.2.4,8.5,0,12.7l-7.5-.7c.3-3.4.4-6.9,0-10.3-8.4-2.4-10.7-2.7-11.1-2.8-.7,0-1.4-.2-2-.6-.9-.5-1.5-1.4-1.7-2.4-1.1-4.9-3.1-9.6-5.8-13.9-.9-1.5-.7-3.4.5-4.7.3-.4,1.6-2.3,5.9-9.9-2-2.4-4.2-4.6-6.6-6.6-7.6,4.3-9.5,5.6-9.9,5.9-.5.5-1.1.8-1.8,1-1,.2-2,0-2.9-.5-4.3-2.7-9-4.6-13.9-5.8-1.7-.4-2.9-1.9-2.9-3.7,0-.5-.4-2.8-2.8-11.2-3.1-.2-6.2-.2-9.3,0-2.4,8.4-2.7,10.7-2.8,11.2,0,1.7-1.2,3.3-2.9,3.7-4.9,1.1-9.6,3.1-13.9,5.8-.9.5-1.9.7-2.9.5-.7-.2-1.3-.5-1.8-1-.4-.3-2.2-1.6-9.9-5.9-2.4,2-4.6,4.2-6.6,6.6,4.3,7.6,5.6,9.5,5.9,9.9,1.2,1.2,1.4,3.1.5,4.6-2.7,4.3-4.6,8.9-5.7,13.9-.2.9-.8,1.8-1.6,2.3-.6.4-1.3.6-2,.7-.2,0-2.2.3-11.2,2.8-.2,3.1-.2,6.2,0,9.3,8.4,2.4,10.7,2.7,11.2,2.8,1.7,0,3.2,1.2,3.6,2.9,1.2,4.9,3.1,9.6,5.8,13.9.5.9.7,1.9.5,2.9-.2.7-.5,1.3-1,1.8-.3.4-1.6,2.2-5.9,9.9,2,2.4,4.2,4.6,6.6,6.6,7.6-4.3,9.5-5.6,9.9-5.9,1.2-1.2,3.1-1.4,4.7-.5,4.3,2.7,9,4.6,13.9,5.7,1,.2,1.8.8,2.4,1.7.4.6.6,1.3.6,2,0,.5.4,2.7,2.8,11.2,3.4.3,6.9.2,10.3,0l.7,7.5c-2.1.2-4.2.3-6.3.3"/>
    <path class="st1" d="M112.9,120.8l-2-7.3c7.8-2.1,13.9-7.9,16.6-15.5l7.2,2.5c-3.5,10-11.6,17.6-21.8,20.3"/>
    <path class="st1" d="M104.5,58.2c-6.8,0-13.1,2.2-18.3,5.9,2.4,1.2,4.3,3.1,5.5,5.4,3.7-2.3,8.1-3.7,12.8-3.7,9.2,0,17.6,5.1,21.7,13.4l6.8-3.4c-5.4-10.9-16.4-17.6-28.5-17.6"/>
    <path class="st1" d="M80.2,90c0-.9,0-1.8.2-2.7-2.7,0-5.2-1-7.3-2.6-.3,1.7-.5,3.5-.5,5.3,0,12.3,7.2,23.6,18.3,28.8l3.2-6.9c-8.5-4-13.9-12.6-13.9-22"/>
    <path class="st1" d="M190.7,161.3l-23.4-23.4c2.8-5.3,4.3-11.2,4.3-17.2s-.2-3.5-.4-5.1c-2,1.7-4.5,2.8-7.3,3,0,.7.1,1.4.1,2.2,0,5.6-1.6,11.1-4.7,15.8-1,1.5-.8,3.5.5,4.7l22.8,22.8-6.1,6.1-23.3-23.3c-.7-.7-1.7-1.1-2.7-1.1s-1.2.2-1.8.5c-4.2,2.3-9,3.5-13.8,3.5-16,0-29-13-29-29s13-29,29-29,13.5,2.5,18.6,6.8c1.7-2.1,4-3.5,6.6-4.2-6.6-6.3-15.4-10.1-25.2-10.1-20.2,0-36.6,16.4-36.6,36.6s16.4,36.6,36.6,36.6,10.2-1.1,14.9-3.2l24,24c.7.7,1.7,1.1,2.7,1.1s1.9-.4,2.7-1.1l11.4-11.4c1.5-1.5,1.5-3.9,0-5.4"/>
    <path class="st1" d="M76.3,75c0-2.3,1.9-4.2,4.2-4.2s4.2,1.9,4.2,4.2-1.9,4.2-4.2,4.2-4.2-1.9-4.2-4.2"/>
    <path class="st1" d="M159.2,106c0-2.3,1.9-4.2,4.2-4.2s4.2,1.9,4.2,4.2-1.9,4.2-4.2,4.2-4.2-1.9-4.2-4.2"/>
  </g>
</svg>