<?xml version="1.0" encoding="UTF-8"?>
<svg id="Layer_1" xmlns="http://www.w3.org/2000/svg" xmlns:xlink="http://www.w3.org/1999/xlink" version="1.1" viewBox="0 0 234 203">
  <!-- Generator: Adobe Illustrator 29.1.0, SVG Export Plug-In . SVG Version: 2.1.0 Build 142)  -->
  <defs>
    <style>
      .st0 {
        fill: none;
      }

      .st1 {
        fill: #d51317;
      }

      .st2 {
        clip-path: url(#clippath);
      }
    </style>
    <clipPath id="clippath">
      <rect class="st0" x="45.2" y="27.8" width="143" height="149.9"/>
    </clipPath>
  </defs>
  <g class="st2">
    <path class="st1" d="M120.7,155.1c0,8.2-6.6,14.8-14.8,14.8h-25.8c-4.6,0-8.5-3.5-8.9-8.1l-2-20.3c-.4-3.8-3.1-6.9-6.9-7.7l-8.6-1.9c-.3,0-.5-.3-.6-.5,0-.2-.1-.4,0-.7l11.1-22.5c-.5,0-1,.1-1.5.1-2.1,0-4.1-.5-5.9-1.6-.2,0-.3-.2-.5-.3l-10.3,20.8c-1.2,2.4-1.2,5.2,0,7.6,1.2,2.4,3.3,4.1,6,4.7l8.6,1.9c.4,0,.7.4.8.9l2,20.3c.8,8.6,8,15.1,16.7,15.1h25.8c12.5,0,22.6-10.2,22.6-22.6v-2.7h-7.8v2.7Z"/>
    <path class="st1" d="M162.4,95.6c-6.7,0-12.2-5.6-12.2-12.4s1.8-3.9,3.9-3.9,3.9,1.8,3.9,3.9,2,4.6,4.4,4.6,2.1-.4,2.9-1.1c1.6-1.5,4.1-1.3,5.5.3,1.5,1.6,1.3,4.1-.3,5.5-2.2,2-5.1,3.2-8.1,3.2"/>
    <path class="st1" d="M147.5,90.9c-2.3,0-4.6-.7-6.5-2-1.8-1.2-2.2-3.7-1-5.4,1.2-1.8,3.7-2.2,5.4-1,.6.4,1.3.6,2,.6,2,0,3.6-1.7,3.6-3.8s1.8-3.9,3.9-3.9,3.9,1.8,3.9,3.9c0,6.4-5.1,11.6-11.5,11.6"/>
    <path class="st1" d="M159.1,109.5c-.5,0-1.1,0-1.6-.1-6.7-.9-11.4-7.1-10.5-13.9.3-2.1,2.3-3.7,4.4-3.4,2.1.3,3.7,2.2,3.4,4.4-.3,2.5,1.4,4.8,3.8,5.2,1,.1,2.1-.1,3-.7,1.8-1.2,4.2-.8,5.4,1,1.2,1.8.8,4.2-1,5.4-2,1.4-4.4,2.2-6.9,2.2"/>
    <path class="st1" d="M95.2,102c-.5,0-1.1,0-1.6-.1-2.1-.3-3.7-2.2-3.4-4.4.3-2.1,2.2-3.6,4.4-3.4,1.2.2,2.5-.2,3.5-1,1.1-.8,1.7-2,1.9-3.4.2-1.3-.1-2.5-.8-3.5-1.2-1.8-.7-4.2,1.1-5.4,1.8-1.2,4.2-.7,5.4,1.1,1.7,2.6,2.5,5.7,2.1,8.8-.4,3.5-2.2,6.5-4.9,8.7-2.2,1.7-4.9,2.7-7.7,2.7"/>
    <path class="st1" d="M106.3,88.4c-3.1,0-6-1.1-8.2-3.3-1.6-1.5-1.7-3.9-.2-5.5,1.5-1.6,3.9-1.7,5.5-.2.9.8,2,1.2,3.1,1.2,1.2,0,2.2-.6,3-1.5.7-.8,1.2-1.9,1.2-3.1,0-2.2,1.8-4,4-3.9,2.2,0,3.9,1.8,3.9,4,0,3-1.1,5.9-3.1,8.2-2.2,2.5-5.2,3.9-8.5,4.1-.2,0-.4,0-.6,0"/>
    <path class="st1" d="M128.4,82.9c-1.6,0-3.2-1-3.7-2.7-.7-2.1.5-4.3,2.5-4.9,1.1-.4,1.7-1.6,1.4-2.8-.2-.7-.6-1-.9-1.2-1.8-1.1-2.4-3.5-1.3-5.4,1.1-1.8,3.5-2.4,5.4-1.3,2.1,1.3,3.6,3.2,4.3,5.6,1.6,5.3-1.2,10.9-6.4,12.6-.4.1-.8.2-1.2.2"/>
    <path class="st1" d="M132.6,77.2c-2,0-3.7-1.5-3.9-3.5-.6-5.5,3.3-10.5,8.8-11.1,2.4-.3,4.9.4,6.8,1.8,1.7,1.3,2.1,3.7.9,5.5-1.3,1.7-3.7,2.1-5.5.9-.3-.2-.8-.4-1.4-.4-1.1.1-2,1.2-1.8,2.5.2,2.1-1.3,4.1-3.5,4.3-.1,0-.3,0-.4,0"/>
    <path class="st1" d="M120.3,95.4c-.6,0-1.3,0-1.9-.2-2.1-.3-3.6-2.4-3.2-4.5.3-2.1,2.4-3.6,4.5-3.2,1.1.2,2.1,0,3-.7.9-.7,1.6-1.7,1.7-2.9.2-1.1,0-2.2-.6-3.1-1.1-1.8-.6-4.2,1.3-5.4,1.8-1.1,4.2-.6,5.4,1.3,1.6,2.5,2.2,5.5,1.7,8.4-.5,3.3-2.2,6.1-4.9,8-2.1,1.5-4.5,2.3-6.9,2.3"/>
    <path class="st1" d="M142.5,103.5c-3.7,0-7.3-1.6-9.8-4.5-1.4-1.6-1.2-4.1.4-5.5,1.6-1.4,4.1-1.2,5.5.4,1.2,1.3,2.9,2,4.6,1.7,1.2-.2,2.4-.8,3.2-1.8,1.4-1.7,3.8-1.9,5.5-.5,1.7,1.4,1.9,3.8.5,5.5-2,2.5-4.9,4.1-8.1,4.6-.6,0-1.3.1-1.9.1"/>
    <path class="st1" d="M150.1,118.7c-5.9,0-10.7-4.9-10.7-10.8s1.8-3.9,3.9-3.9,3.9,1.8,3.9,3.9,1.3,3,2.8,3,1.5-.4,1.8-.7c1.6-1.5,4.1-1.3,5.5.3,1.5,1.6,1.3,4.1-.3,5.5-2,1.8-4.5,2.8-7.1,2.8"/>
    <path class="st1" d="M86.4,95.5c-1.3,0-2.5-.6-3.3-1.7-3-4.6-1.9-10.8,2.6-13.9,1.8-1.2,4.2-.8,5.4,1,1.2,1.8.8,4.2-1,5.4-1,.7-1.2,2.1-.6,3.2,1.2,1.8.7,4.2-1.1,5.4-.7.4-1.4.7-2.2.7"/>
    <path class="st1" d="M180.3,83.3c1.5-.7,3.2-1.1,4.9-1.1s2,.1,3,.4c-4.2-28.5-27.5-51.2-56.3-54.4-18.5-2-36.3,3.6-50.1,16-11.8,10.6-19.3,25.2-21,40.9.7-.1,1.3-.2,2-.2,2,0,4,.5,5.7,1.5,1.4-13.9,8-26.9,18.5-36.4,12.1-10.8,27.8-15.8,44.1-14,25.2,2.8,45.4,22.5,49.3,47.3"/>
    <path class="st1" d="M185.1,105.7c-1.9,0-3.8-.5-5.5-1.4-2,9.2-6.3,17.7-12.8,25-4,4.5-6.2,10.2-6.2,15.8v28.7s7.8,0,7.8,0v-28.7c0-3.8,1.5-7.5,4.3-10.7,7.5-8.5,12.4-18.4,14.7-29.1-.8.2-1.5.3-2.3.3"/>
    <path class="st1" d="M106.1,55.6c0-2.3,1.9-4.2,4.2-4.2s4.2,1.9,4.2,4.2-1.9,4.2-4.2,4.2-4.2-1.9-4.2-4.2"/>
    <path class="st1" d="M124.3,117.4c0-2.3,1.9-4.2,4.2-4.2s4.2,1.9,4.2,4.2-1.9,4.2-4.2,4.2-4.2-1.9-4.2-4.2"/>
    <path class="st1" d="M119,110.2c1.8-3.2,5.1-5.3,8.7-5.8-.9-.8-2.1-1.5-3.5-1.9-.6-.1-1.2-.2-1.8-.2-1.7,0-3.5.6-5.4,1.8-.9.6-2.3.9-4.1.9-4.7,0-8.7-3.5-9.5-8.3-.2-1.2-.9-2.3-2-2.8-1.1-.6-2.4-.6-3.5-.1-.8.3-1.6.5-2.4.5-3.2,0-5.8-2.5-6.1-5.7-.1-1.3-.9-2.4-1.9-3-2-1.1-3.2-3.3-3.2-5.6,0-3.5,2.8-6.4,6.2-6.4h.2c1.4,0,2.6-.6,3.4-1.7.8-1.1.9-2.6.3-3.8-.2-.5-.4-1.1-.4-1.7,0-2.2,1.7-4,3.9-4s1,0,1.4.3c.9.4,1.8.4,2.6.1-2.2-2.2-3.5-5.1-3.5-8.2-.2,0-.3,0-.5,0-6.4,0-11.7,5.3-11.7,11.9h0c-5.7,1.9-9.8,7.3-9.8,13.6s2.1,8.7,5.5,11.3c1.5,6.3,7,10.8,13.6,10.8s.9,0,1.3,0c2.6,6.5,8.9,10.9,16.1,10.9s3.6-.3,5.2-.8c.2-.7.5-1.3.9-1.9"/>
    <path class="st1" d="M174.1,83.5c0-5-2.6-9.6-6.7-12.2-.5-5.3-4.5-9.6-9.6-10.5-1.7-4.5-5.9-7.6-10.9-7.6s-.8,0-1.1,0c-2.8-2.1-6.1-3.3-9.7-3.3s-2.8.2-4.1.5c-3.2-2.3-7.6-2.8-11.2-1.3.3.6.6,1.3.8,2,.6,2.4.5,4.8-.3,7,.5-.2.9-.5,1.3-.9,1.5-1.6,4.1-1.5,5.5.2,1.1,1.4,3.1,1.8,4.7,1.1,3-1.4,6.7-.7,9.1,1.7,1,1,2.6,1.4,4,1,.4-.1.7-.2,1.1-.2,2.1,0,3.7,1.7,3.8,3.8,0,1.1.6,2.2,1.5,2.9.9.7,2,1,3.1.8.2,0,.4,0,.6,0,2.1,0,3.7,1.8,3.7,3.9s0,.4,0,.7c-.3,1.9.8,3.7,2.6,4.3,2.5.9,4.2,3.3,4.2,6.1s-.4,2.6-1.1,3.7c-.7,1-.8,2.3-.5,3.4.3,1,.5,1.9.5,3,0,5-4,9.1-8.8,9.1h-.3c-1.1,0-2.2.4-3,1.3-.8.8-1.1,2-1,3.1,0,.3,0,.5,0,.8.1,1.2-.3,2.2-.8,2.8-.3.3-.6.4-.7.4-.4,0-.6,0-1.1-.3-1.1-.5-3.4-1.6-6.3-.1-1.1.5-2,1.3-2.7,2.2,0,0,0,0,0,.1.8,2.9.4,5.9-1,8.5,0,0,0,0,0,0,.2.5.3.6.3.8s-.2.4-.3.4-.3-.2-.3-.2c0,0,0-.2-.2-.3-1.5,2.3-3.7,4-6.2,4.8,1.5,2.1,4,3.5,6.6,3.5,4.5,0,8.1-3.7,8.1-8.2s-.5-3.1-.9-3.9c0-.2-.2-.4-.2-.5.9.4,2.2.9,4.1.9s4.8-1.1,6.5-3.1c1.4-1.6,2.3-3.6,2.6-5.7,7.6-1.6,13.2-8.4,13.2-16.6s-.1-2.5-.4-3.6c1-2,1.5-4.2,1.5-6.4"/>
  </g>
</svg>