<?xml version="1.0" encoding="UTF-8"?>
<svg id="Layer_1" xmlns="http://www.w3.org/2000/svg" xmlns:xlink="http://www.w3.org/1999/xlink" version="1.1" viewBox="0 0 234 203">
  <!-- Generator: Adobe Illustrator 29.1.0, SVG Export Plug-In . SVG Version: 2.1.0 Build 142)  -->
  <defs>
    <style>
      .st0 {
        fill: none;
      }

      .st1 {
        fill: #d51317;
      }

      .st2 {
        clip-path: url(#clippath-1);
      }

      .st3 {
        clip-path: url(#clippath-2);
      }

      .st4 {
        clip-path: url(#clippath);
      }
    </style>
    <clipPath id="clippath">
      <rect class="st0" x="22.1" y="20" width="188.9" height="159.8"/>
    </clipPath>
    <clipPath id="clippath-1">
      <rect class="st0" x="22.1" y="20" width="188.9" height="159.8"/>
    </clipPath>
    <clipPath id="clippath-2">
      <rect class="st0" x="22.1" y="20" width="188.9" height="159.8"/>
    </clipPath>
  </defs>
  <rect class="st1" x="54.8" y="27.7" width="156.2" height="8"/>
  <rect class="st1" x="128.8" y="127.5" width="8" height="41.6"/>
  <rect class="st1" x="128.8" y="20" width="8" height="11.7"/>
  <rect class="st1" x="150.7" y="137.2" width="8" height="51.1" transform="translate(-65.5 206.4) rotate(-57.6)"/>
  <rect class="st1" x="122.9" y="54.5" width="49.5" height="8"/>
  <g class="st4">
    <path class="st1" d="M99.1,67.7s0,0,0,0c-1.2,0-2.4-.6-3.1-1.6l-6.3-8.2,6.4-4.9,3.2,4.2,7.6-9.1,6.2,5.1-10.8,13c-.8.9-1.9,1.4-3.1,1.4"/>
    <path class="st1" d="M99.1,89.8s0,0,0,0c-1.2,0-2.4-.6-3.1-1.6l-6.3-8.2,6.4-4.9,3.2,4.2,7.6-9.1,6.2,5.1-10.8,13c-.8.9-1.9,1.4-3.1,1.4"/>
    <path class="st1" d="M99.1,111.8s0,0,0,0c-1.2,0-2.4-.6-3.1-1.6l-6.3-8.2,6.4-4.9,3.2,4.2,7.6-9.1,6.2,5.1-10.8,13c-.8.9-1.9,1.4-3.1,1.4"/>
  </g>
  <rect class="st1" x="122.9" y="75.4" width="49.5" height="8"/>
  <rect class="st1" x="122.9" y="96.2" width="49.5" height="8"/>
  <g class="st2">
    <path class="st1" d="M99.9,164.9l-12.7,8.1,4.3,6.8,13-8.2c-2.2-1.6-3.8-3.9-4.5-6.6"/>
    <path class="st1" d="M123.4,159.6l11.3-7.2-4.3-6.8-11.1,7c2.1,1.7,3.5,4.2,4,6.9"/>
    <path class="st1" d="M199.8,73.6c1.4,0,2.8.3,4.1.7v-42.3h-8v42.2c1.2-.4,2.5-.7,3.9-.7"/>
    <path class="st1" d="M199.8,97.7c-1.4,0-2.7-.2-3.9-.7v26.5h-126v-36.2h-8v40.2c0,2.2,1.8,4,4,4h134c2.2,0,4-1.8,4-4v-30.6c-1.3.5-2.7.7-4.1.7"/>
  </g>
  <rect class="st1" x="14.9" y="72.1" width="68.4" height="8" transform="translate(-39.5 57) rotate(-45)"/>
  <g class="st3">
    <path class="st1" d="M107.5,161.6c0-2.3,1.9-4.2,4.2-4.2s4.2,1.9,4.2,4.2-1.9,4.2-4.2,4.2-4.2-1.9-4.2-4.2"/>
  </g>
</svg>