<?xml version="1.0" encoding="UTF-8"?>
<svg id="Layer_1" xmlns="http://www.w3.org/2000/svg" version="1.1" viewBox="0 0 141.7 141.7">
  <!-- Generator: Adobe Illustrator 29.1.0, SVG Export Plug-In . SVG Version: 2.1.0 Build 142)  -->
  <defs>
    <style>
      .st0 {
        fill: #a8a8a7;
      }
    </style>
  </defs>
  <path class="st0" d="M71.9,81.9l-1.1-4c4.3-1.2,7.7-4.4,9.2-8.6l4,1.4c-1.9,5.5-6.4,9.7-12,11.2Z"/>
  <g>
    <path class="st0" d="M67.3,47.3c-3.8,0-7.3,1.2-10.1,3.2,1.3.7,2.4,1.7,3,3,2.1-1.3,4.5-2,7.1-2,5.1,0,9.7,2.8,12,7.4l3.7-1.9c-3-6-9-9.7-15.7-9.7Z"/>
    <path class="st0" d="M53.9,64.9c0-.5,0-1,0-1.5-1.5,0-2.9-.6-4-1.4-.2.9-.2,1.9-.2,2.9,0,6.8,4,13,10.1,15.9l1.8-3.8c-4.7-2.2-7.7-7-7.7-12.1Z"/>
  </g>
  <g>
    <path class="st0" d="M64.8,98c-1.3-4.7-1.5-5.9-1.5-6.2,0-.4-.1-.8-.3-1.1-.3-.5-.8-.8-1.3-.9-2.7-.6-5.3-1.7-7.7-3.2-.8-.5-1.9-.4-2.6.3-.2.2-1.3.9-5.5,3.3-1.3-1.1-2.5-2.3-3.6-3.6,2.4-4.2,3.1-5.2,3.3-5.4.3-.3.5-.6.5-1,.1-.5,0-1.1-.3-1.6-1.5-2.4-2.6-5-3.2-7.7-.2-1-1.1-1.6-2-1.6-.3,0-1.5-.2-6.2-1.6-.1-1.7-.1-3.4,0-5.1,5-1.4,6.1-1.5,6.2-1.5.4,0,.8-.1,1.1-.4.4-.3.8-.8.9-1.3.6-2.7,1.7-5.3,3.2-7.7.5-.8.4-1.9-.3-2.6-.2-.2-.9-1.3-3.3-5.5,1.1-1.3,2.3-2.5,3.6-3.6,4.2,2.4,5.2,3.1,5.4,3.3.3.3.6.5,1,.5.5.1,1.1,0,1.6-.3,2.4-1.5,5-2.6,7.7-3.2,1-.2,1.6-1.1,1.6-2,0-.3.2-1.5,1.5-6.2,1.7-.1,3.4-.1,5.1,0,1.3,4.6,1.5,5.9,1.5,6.2,0,.9.7,1.8,1.6,2,2.7.6,5.3,1.7,7.7,3.2.5.3,1,.4,1.6.3.4,0,.7-.3,1-.5.2-.2,1.2-.9,5.5-3.3,1.3,1.1,2.5,2.3,3.6,3.6-2.4,4.2-3.1,5.3-3.3,5.5-.7.7-.8,1.7-.3,2.6,1.5,2.4,2.6,5,3.2,7.7.1.5.5,1,.9,1.3.3.2.7.3,1.1.3.3,0,1.5.2,6.2,1.5.1,1.5.1,3,0,4.5,1.4.1,2.7.7,3.7,1.6h.4c.2-2.3.2-4.6,0-7-.1-1.1-.8-2.4-2-2.8,0,0-.1,0-.2,0-3.3-.9-5.2-1.4-6.4-1.7-.6-2.2-1.5-4.4-2.6-6.4.7-1,1.7-2.8,3.4-5.7,0,0,0,0,0-.2.5-1.2.1-2.6-.6-3.4-1.5-1.8-3.1-3.5-4.9-4.9-.9-.7-2.3-1.2-3.6-.5-3,1.7-4.7,2.7-5.7,3.4-2-1.1-4.1-2-6.4-2.6-.3-1.2-.8-3.2-1.7-6.4-.4-1.3-1.8-2.1-2.9-2.2-2.3-.2-4.7-.2-7,0-1.1.1-2.3.7-2.8,2,0,0,0,.1,0,.2-.9,3.3-1.4,5.2-1.7,6.4-2.2.6-4.4,1.5-6.4,2.6-1-.7-2.8-1.7-5.7-3.4,0,0-.1,0-.2,0-1.2-.5-2.6,0-3.4.6-1.8,1.5-3.5,3.1-5,4.9-.7.8-1.1,2.2-.6,3.4,0,0,0,.1,0,.2,1.7,3,2.7,4.7,3.3,5.7-1.1,2-2,4.2-2.6,6.4-1.2.3-3.2.8-6.4,1.7-1.3.4-2.1,1.8-2.2,2.9-.2,2.3-.2,4.7,0,7,.1,1.1.8,2.5,2.2,2.9,3.3.9,5.2,1.4,6.4,1.7.6,2.2,1.5,4.4,2.6,6.4-.7,1-1.7,2.8-3.3,5.7-.7,1.2-.2,2.7.5,3.5,1.5,1.8,3.2,3.5,4.9,4.9.9.7,2.3,1.2,3.6.5,3-1.7,4.7-2.7,5.7-3.3,2,1.1,4.2,2,6.4,2.6.3,1.2.8,3.2,1.7,6.4.4,1.3,1.8,2,2.9,2.1,1.2.1,2.4.2,3.5.2s2.3,0,3.5-.2l-.4-4.2c-1.9.2-3.8.2-5.7,0ZM40.4,61c0,0,.2,0,.3,0,0,0-.1,0-.3,0ZM40.4,61c0,0-.2,0-.3,0,0,0,.2,0,.3,0Z"/>
    <path class="st0" d="M114.9,104.3l-13-13c1.6-2.9,2.4-6.2,2.4-9.5s0-1.9-.2-2.9c-1.1,1-2.5,1.6-4,1.7,0,.4,0,.8,0,1.2,0,3.1-.9,6.1-2.6,8.7-.5.8-.4,1.9.3,2.6l12.6,12.6-3.3,3.3-12.9-12.9c-.4-.4-.9-.6-1.5-.6s-.7,0-1,.3c-2.3,1.3-5,1.9-7.6,1.9-8.8,0-16-7.2-16-16s7.2-16,16-16,7.5,1.4,10.3,3.7c.9-1.1,2.2-2,3.7-2.3-3.6-3.5-8.5-5.6-13.9-5.6-11.1,0-20.2,9.1-20.2,20.2s9.1,20.2,20.2,20.2,5.6-.6,8.2-1.7l13.3,13.3c.4.4.9.6,1.5.6s1.1-.2,1.5-.6l6.3-6.3c.8-.8.8-2.1,0-3Z"/>
    <path class="st0" d="M88.8,90.2c-4.2-2.4-5.3-3.1-5.5-3.3-.7-.7-1.7-.8-2.6-.3-.3.2-.6.4-.9.6-.7.4-1.4.9-2.1,1.3l2.1,3.6c.7-.4,1.3-.8,2-1.2,1,.7,2.8,1.7,5.7,3.3.4.2.9.3,1.3.3.8,0,1.7-.4,2.3-.8,1.8-1.5,3.5-3.1,4.9-4.9.7-.9,1.2-2.3.5-3.6-1.7-3-2.7-4.7-3.4-5.7.3-.6.6-1.2.9-1.8-.6-.8-1-1.7-1.1-2.7l-1.9-.7c-.6,1.5-1.3,2.9-2.1,4.3-.3.5-.4,1.1-.3,1.6,0,.4.3.7.5,1,.2.2.9,1.2,3.3,5.4-1.1,1.3-2.3,2.5-3.6,3.6Z"/>
  </g>
  <circle class="st0" cx="100" cy="73.7" r="2.3"/>
</svg>