<?xml version="1.0" encoding="UTF-8"?>
<svg id="Layer_1" xmlns="http://www.w3.org/2000/svg" xmlns:xlink="http://www.w3.org/1999/xlink" version="1.1" viewBox="0 0 234 203">
  <!-- Generator: Adobe Illustrator 29.1.0, SVG Export Plug-In . SVG Version: 2.1.0 Build 142)  -->
  <defs>
    <style>
      .st0 {
        fill: none;
      }

      .st1 {
        fill: #d51317;
      }

      .st2 {
        clip-path: url(#clippath-1);
      }

      .st3 {
        clip-path: url(#clippath-2);
      }

      .st4 {
        clip-path: url(#clippath);
      }
    </style>
    <clipPath id="clippath">
      <rect class="st0" x="33.7" y="24.7" width="164.6" height="153.7"/>
    </clipPath>
    <clipPath id="clippath-1">
      <rect class="st0" x="33.7" y="24.7" width="164.6" height="153.7"/>
    </clipPath>
    <clipPath id="clippath-2">
      <rect class="st0" x="33.7" y="24.7" width="164.6" height="153.7"/>
    </clipPath>
  </defs>
  <g class="st4">
    <path class="st1" d="M175.1,104.6h-7.9v-6.4c0-28.3-20.1-52.8-47.7-58.4l1.6-7.7c31.3,6.4,54,34.2,54,66.2v6.4Z"/>
    <path class="st1" d="M47.9,104.6h-7.9v-6.4c0-32,22.7-59.8,54-66.2l1.6,7.7c-27.6,5.6-47.7,30.2-47.7,58.4v6.4Z"/>
  </g>
  <rect class="st1" x="78.2" y="40" width="7.9" height="20.4"/>
  <rect class="st1" x="129.1" y="40" width="7.9" height="20.4"/>
  <polygon class="st1" points="90.9 24.7 90.9 66.8 98.8 66.8 98.8 32.6 116.4 32.6 116.4 66.8 124.2 66.8 124.2 24.7 90.9 24.7"/>
  <polygon class="st1" points="164.3 108.5 173.6 108.5 173.6 119.7 170.8 119.7 175.4 127.6 181.5 127.6 181.5 100.6 159.7 100.6 164.3 108.5"/>
  <g class="st2">
    <path class="st1" d="M114.1,119.7H41.6v-11.2h15.1c-.5-1.2-.8-2.5-.8-3.9s.3-2.7.8-3.9h-23v27h75.8l4.6-7.9Z"/>
    <path class="st1" d="M120.6,108.5l4.6-7.9h-50.7c.5,1.2.8,2.5.8,3.9s-.3,2.7-.8,3.9h46.1Z"/>
  </g>
  <rect class="st1" x="138.7" y="123.7" width="7.9" height="22.9"/>
  <g class="st3">
    <path class="st1" d="M183.9,153.8c-1.6,2.1-4.1,3.6-6.9,3.9l7.5,12.9h-84.1l42.1-72.1,25.6,43.8c1.5-2.2,4-3.7,6.8-4.1l-32.3-55.4-55.8,95.6h111.6l-14.4-24.7Z"/>
    <path class="st1" d="M146.9,156.5c0,2.3-1.9,4.2-4.2,4.2s-4.2-1.9-4.2-4.2,1.9-4.2,4.2-4.2,4.2,1.9,4.2,4.2"/>
  </g>
</svg>