<?xml version="1.0" encoding="UTF-8"?>
<svg id="Layer_1" xmlns="http://www.w3.org/2000/svg" version="1.1" viewBox="0 0 212.7 216.7">
  <!-- Generator: Adobe Illustrator 29.1.0, SVG Export Plug-In . SVG Version: 2.1.0 Build 142)  -->
  <defs>
    <style>
      .st0 {
        fill: #fecc00;
      }
    </style>
  </defs>
  <path class="st0" d="M181,106.6l-28.7-29v-35.4c0-1.1-.9-1.9-1.9-1.9h-13.8c-1.1,0-1.9.9-1.9,1.9v17.7l-25.6-25.8c-1.4-1.4-3.7-1.4-5.1,0L31.4,106.6c-2.1,2.1-2.1,5.4,0,7.5,1.5,1.5,3.6,1.9,5.4,1.3h0s15.1-5.2,15.1-5.2v57.3c0,2.4,2,4.4,4.4,4.4h28.6c2.4,0,4.4-2,4.4-4.4v-43.5h34.5v43.5c0,2.4,2,4.4,4.4,4.4h28.6c2.4,0,4.4-2,4.4-4.4v-57l14.2,4.8c1.9.7,4.1.4,5.7-1.2,2.1-2.1,2.1-5.4,0-7.5Z"/>
</svg>