<?xml version="1.0" encoding="UTF-8"?>
<svg id="Layer_1" xmlns="http://www.w3.org/2000/svg" version="1.1" viewBox="0 0 141.7 141.7">
  <!-- Generator: Adobe Illustrator 29.1.0, SVG Export Plug-In . SVG Version: 2.1.0 Build 142)  -->
  <defs>
    <style>
      .st0 {
        fill: #d51317;
      }
    </style>
  </defs>
  <polygon class="st0" points="56.5 79.6 52.6 79.6 52.6 69.1 38.1 69.1 38.1 65.2 56.5 65.2 56.5 79.6"/>
  <rect class="st0" x="55.2" y="72.2" width="48.4" height="3.9"/>
  <path class="st0" d="M57,40h10.2v-10.2h9.5v10.2h10.2v9.5h-10.2v10.2h-9.5v-10.2h-10.2v-9.5ZM63.2,25.9v10.2h-10.2v17.3h10.2v10.2h17.3v-10.2h10.2v-17.3h-10.2v-10.2h-17.3Z"/>
  <polygon class="st0" points="42.5 104.2 38.6 104.2 38.6 94.1 106.4 94.1 106.4 103.6 102.5 103.6 102.5 98 42.5 98 42.5 104.2"/>
  <g>
    <path class="st0" d="M40.5,104.7c-1.9,0-3.5,1.6-3.5,3.5s1.6,3.5,3.5,3.5,3.5-1.6,3.5-3.5-1.6-3.5-3.5-3.5M40.5,115.7c-4.1,0-7.5-3.3-7.5-7.5s3.3-7.5,7.5-7.5,7.5,3.3,7.5,7.5-3.3,7.5-7.5,7.5"/>
    <path class="st0" d="M104.2,104.7c-1.9,0-3.5,1.6-3.5,3.5s1.6,3.5,3.5,3.5,3.5-1.6,3.5-3.5-1.6-3.5-3.5-3.5M104.2,115.7c-4.1,0-7.5-3.3-7.5-7.5s3.3-7.5,7.5-7.5,7.4,3.3,7.4,7.5-3.3,7.5-7.4,7.5"/>
  </g>
  <rect class="st0" x="49.5" y="87.2" width="3.9" height="9.1"/>
  <rect class="st0" x="90.6" y="87.2" width="3.9" height="9.1"/>
  <g>
    <path class="st0" d="M55.5,87.3c0-.6,0-1.2.3-1.8h-21.4v-35.2h-3.9v39.1h25.5c-.2-.7-.4-1.4-.4-2.2"/>
    <path class="st0" d="M59.9,87.2c0-1.1.9-2,2-2s2,.9,2,2-.9,2-2,2-2-.9-2-2"/>
    <path class="st0" d="M111.7,72.2c.6,0,1.2.1,1.7.4v-7.8h-3.9v8.1c.6-.4,1.4-.6,2.2-.6"/>
    <path class="st0" d="M111.7,80.9c-.8,0-1.6-.2-2.2-.6v5.3h-41.4c.2.6.3,1.2.3,1.8s-.1,1.5-.4,2.2h45.5v-9c-.5.2-1.1.4-1.7.4"/>
  </g>
</svg>