<?xml version="1.0" encoding="UTF-8"?>
<svg id="Layer_1" xmlns="http://www.w3.org/2000/svg" version="1.1" viewBox="0 0 141.7 141.7">
  <!-- Generator: Adobe Illustrator 29.1.0, SVG Export Plug-In . SVG Version: 2.1.0 Build 142)  -->
  <defs>
    <style>
      .st0 {
        isolation: isolate;
        opacity: .2;
      }

      .st1 {
        fill: #c5bcc7;
      }
    </style>
  </defs>
  <g class="st0">
    <path class="st1" d="M58.4,29.1c-3.4,0-6.2,2.7-6.2,6.2,0,3.4,2.7,6.2,6.2,6.2,3.4,0,6.2-2.7,6.2-6.2,0-3.4-2.7-6.2-6.2-6.2M58.4,45.3c-5.5,0-10-4.5-10-10.1,0-5.5,4.5-10,10.1-10,5.5,0,10,4.5,10,10.1,0,5.5-4.5,10-10.1,10"/>
    <path class="st1" d="M81.5,30.8c-3.4,0-6.2,2.7-6.2,6.2,0,3.4,2.7,6.2,6.2,6.2s6.2-2.7,6.2-6.2c0-3.4-2.7-6.2-6.2-6.2M81.4,47c-5.5,0-10-4.5-10-10.1,0-5.5,4.5-10,10.1-10,5.5,0,10,4.5,10,10.1,0,5.5-4.5,10-10.1,10"/>
    <path class="st1" d="M70,50c-3.4,0-6.2,2.7-6.2,6.2,0,3.4,2.7,6.2,6.2,6.2,3.4,0,6.2-2.7,6.2-6.2,0-3.4-2.8-6.2-6.2-6.2M69.9,66.2c-5.5,0-10-4.5-10-10.1,0-5.5,4.5-10,10.1-10,5.5,0,10,4.5,10,10.1,0,5.5-4.5,10-10.1,10"/>
    <path class="st1" d="M59.3,74.6l-3.2-.8c-.3,0-.5-.4-.4-.7,1.6-6,7.5-10.5,14.2-10.5,6.6,0,12.5,4.5,14.2,10.9l-3.2.9c-.3,0-.6,0-.7-.4-1.1-4.2-5.5-7.5-10.4-7.5-5,0-9.4,3.3-10.6,8.2"/>
    <path class="st1" d="M46.4,52.2l-2.9-1.7c-.3-.2-.4-.5-.2-.8,2.9-4.9,8.7-8.3,15-8.3v3.3c0,.3-.3.6-.6.6-4.3,0-8.9,2.6-11.3,6.8"/>
    <path class="st1" d="M92.9,52.9c-2.6-3.5-6.7-5.7-11.1-5.7v-3.3c0-.3.3-.6.6-.6,5,0,10.3,2.7,13.3,6.8.2.3.1.6-.1.8l-2.7,1.9Z"/>
    <path class="st1" d="M66.5,110.4c0,.3-.3.6-.6.6h-2.7c-.3,0-.6-.3-.6-.6v-3.9c0-.3-.2-.6-.6-.6h-19.8c-.3,0-.6.2-.6.5v3.9c0,.3-.3.6-.6.6h-2.7c-.3,0-.6-.3-.6-.6v-7.7c0-.3.3-.6.6-.6h27.6c.3,0,.6.3.6.7v7.7Z"/>
    <path class="st1" d="M102,110.5c0,.3-.3.6-.6.6h-2.7c-.3,0-.6-.3-.6-.6v-3.9c0-.3-.2-.6-.6-.6h-19.8c-.3,0-.6.2-.6.5v3.9c0,.3-.3.6-.6.6h-2.7c-.3,0-.6-.3-.6-.6v-7.7c0-.3.3-.6.6-.6h27.6c.3,0,.6.3.6.7v7.7Z"/>
    <path class="st1" d="M62.7,103.9h-3.3c-.3,0-.6-.3-.6-.7.2-7.4.3-16.5.2-17.9,0-.3-.2-.8-.4-1-2.8-3.2-9.6-10.1-15.2-15.4-1.6-1.1-3.7-1.1-4.7,0-1.6.8-1.5,2.7,0,4.3,3.4,3.5,8.5,9,8.6,9l-2.4,2.2c-.2.2-.4.4-.4.4-1.3-1.5-5-5.5-8.4-8.9-2.4-3-2.4-7.3,0-9.7,2.2-3.3,6.7-3.3,10.2,0,7,6.1,14.3,13.7,16.3,16.9.4.6.7,1.1.2,20.9"/>
    <path class="st1" d="M96.7,103.2c0,.3-.3.6-.6.6h-2.7c-.3,0-.6-.3-.6-.6v-3.8c0-.1,0-.3.1-.3l.3-.4c3.6-4.2,13.1-15.2,14.4-16.9.2-.2.4-.7.5-1,.9-8.2,1-16.5.3-18.5-.8-2-4-7.8-5-9.5-.2-.3-.4-.4-.6-.4-.3,0-1.1.7-1.8,1.6-.9.4-1.4,2.2-1,4,1,5.6,1.5,8.2,1.5,8.2l-3.2.6c-.3,0-.6.1-.6,0,.2,1.1-.5-2.6-1.5-8.3.4-4.5,3-9,5.6-10.1,1.9,0,3.8.3,4.1.7,2.3,3.8,5.1,9,6.2,11.5.5,0,.8,5.4.5,11.8-.4,5.6-1,10.5-1.3,10.9-1.2,1.6-12.2,14.3-14.3,16.8-.2.2-.4.7-.4,1,0,2.6,0,2,0,2"/>
    <path class="st1" d="M76.8,97.5c-.2-7.4,0-13.8.4-14.4,8.9-9.1,16.3-16.6,16.4-16.8,3.2-2.5,7.7-2.4,10.2.1,3.1,2.2,3.1,6.6-.1,9.7-3.4,3.4-8.5,8.8-8.5,8.8l-2.4-2.3c-.2-.2-.4-.4-.4-.4,1.3-1.5,5.1-5.5,8.6-8.9,1-1.4,1-3.3,0-4.3-.8-1.7-2.9-1.7-4.7,0-5.6,5.3-13.9,13.5-15.3,15.3-.2.3-.4.7-.4,1,0,.9,0,6.7.1,11.3,0,.3-.2.6-.6.6h-3.3Z"/>
    <path class="st1" d="M36.7,88c.3-.1.4-.4.2-.6-2.2-2.6-4.5-5.4-4.9-5.9-.2-.2-.4-.7-.5-1-.8-8.2-.9-16.5-.2-18.5.8-2,4-7.8,5.1-9.5.2-.3.4-.4.6-.4.3,0,1.1.7,1.8,1.7.9.4,1.3,2.2,1,4-1,5.6-1.6,8.2-1.6,8.2l3.2.7c.3,0,.6.1.6.1-.2,1.1.5-2.6,1.6-8.3-.4-4.5-2.9-9-5.6-10.1-1.9,0-3.8.2-4.1.7-2.4,3.8-5.2,8.9-6.2,11.5-.5,0-.8,5.4-.6,11.8.4,5.6.9,10.5,1.2,10.9.6.7,3.1,3.8,5.6,6.7.2.2.5.2.7,0,.4-.6,1.4-1.5,2.1-1.8"/>
    <path class="st1" d="M39.3,91.3c-1.1,0-1.9.9-1.9,1.9,0,1.1.9,1.9,1.9,1.9s1.9-.9,1.9-1.9c0-.3-.1-.8-.3-1.1,0,0-.2-.2-.3-.4-.3-.3-.8-.5-1.3-.5"/>
    <path class="st1" d="M46.3,98.4c-.5-.6-1.2-1.4-1.6-1.9-.2-.2-.5-.2-.7,0-.4.6-1.4,1.5-2.1,1.8-.3.1-.4.4-.2.6.3.4.8,1,1,1.2,0,.1.2.5.2.8v2c0,.3.2.6.6.6h2.7c.3,0,.6-.2.6-.6v-3.8c0-.1,0-.3-.1-.3l-.3-.4Z"/>
  </g>
</svg>