<?xml version="1.0" encoding="UTF-8"?>
<svg id="Layer_1" xmlns="http://www.w3.org/2000/svg" version="1.1" viewBox="0 0 141.7 141.7">
  <!-- Generator: Adobe Illustrator 29.1.0, SVG Export Plug-In . SVG Version: 2.1.0 Build 142)  -->
  <defs>
    <style>
      .st0 {
        fill: #a8a8a7;
      }
    </style>
  </defs>
  <rect class="st0" x="53" y="32.6" width="4.4" height="31.5"/>
  <path class="st0" d="M88.2,46.7h-35.2v-20.3h35.2l-10.2,10.2,10.2,10.2ZM57.4,42.3h20l-5.7-5.7,5.7-5.7h-20v11.5Z"/>
  <polygon class="st0" points="43.4 98.8 37.9 93.4 41 90.2 43.4 92.5 47.3 88.6 51.3 92.5 55.2 88.6 59.1 92.5 63 88.6 67 92.5 69.4 90.2 72.5 93.3 67.1 98.8 63.1 94.9 59.2 98.8 55.2 94.9 51.3 98.8 47.3 94.9 43.4 98.8"/>
  <polygon class="st0" points="98.6 90.9 94.6 87 90.7 90.9 85.1 85.5 88.2 82.3 90.7 84.7 94.6 80.8 98.5 84.7 100.9 82.3 104 85.5 98.6 90.9"/>
  <g>
    <path class="st0" d="M63.2,73.4l-8-13.6-30.6,52.5,3.8,2.2,26.8-45.9,4.1,7c.9-1.2,2.3-2.1,3.8-2.2Z"/>
    <path class="st0" d="M68.3,82.1c-.9,1.2-2.3,2.1-3.8,2.2l17.6,30.2,3.8-2.2-17.6-30.2Z"/>
  </g>
  <circle class="st0" cx="63.8" cy="78.8" r="2.4"/>
  <g>
    <path class="st0" d="M110,92.5l-15.4-24.7-20.3,32.5,3.8,2.4,16.5-26.4,11.5,18.4c.9-1.2,2.3-2,3.9-2.1Z"/>
    <path class="st0" d="M115.2,100.8c-.8,1.3-2.1,2.3-3.6,2.6l2,3.2,3.8-2.4-2.1-3.4Z"/>
  </g>
</svg>