<?xml version="1.0" encoding="UTF-8"?>
<svg id="Layer_1" xmlns="http://www.w3.org/2000/svg" xmlns:xlink="http://www.w3.org/1999/xlink" version="1.1" viewBox="0 0 234 203">
  <!-- Generator: Adobe Illustrator 29.1.0, SVG Export Plug-In . SVG Version: 2.1.0 Build 142)  -->
  <defs>
    <style>
      .st0 {
        fill: none;
      }

      .st1 {
        fill: #d51317;
      }

      .st2 {
        clip-path: url(#clippath);
      }
    </style>
    <clipPath id="clippath">
      <rect class="st0" x="62" y="21.4" width="104.4" height="154.6"/>
    </clipPath>
  </defs>
  <g class="st2">
    <path class="st1" d="M144.9,116.9h-18.3v-2.6h18.3v2.6ZM121.9,71.8c2.3-3.2,5.2-7.1,8.6-12.7,5.7-9.5,5.5-18.9,3.9-25.8,5.6,4.2,12.8,10.7,17.8,18.6,7.4,11.9,4.1,27,2.7,32.9h-2.2c-.5-2.9-2-4.9-3.7-7.3-1.1-1.5-2.4-3.3-4-5.8-3.7-6.1-.1-12.3,0-12.6.8-1.4.6-3.1-.6-4.2-1.2-1.1-3-1.2-4.2-.2-.3.2-7.1,5.2-12.2,13.4-3.7,5.9-2.5,12.6-1.1,16.9h-11c0-5.1,1.9-7.7,6-13.3M133.7,71.6c1-1.5,2-3,3-4.2.2,2.4,1,5.1,2.5,7.7,1.7,2.8,3.1,4.8,4.3,6.4,1.1,1.6,1.8,2.5,2.2,3.4h-11.8c-1.2-3.1-3-8.9-.3-13.3M159.6,99.9l-7.9,7.7h-30.3c0-.1-4.6-3.5-4.6-3.5h31v-6.7h-35.4v-5.5l47.1-.3v8.3ZM154.4,114.3l11.9-11.5v-17.9h-4.6c1.7-7.5,4.4-23.2-3.9-36.4-10.1-16.2-27.9-26.2-28.6-26.6-1.3-.7-3-.5-4,.6-1.1,1.1-1.3,2.7-.5,4.1.4.6,8.6,14.9,0,29.2-3.2,5.3-6,9.1-8.2,12.2-4.3,5.9-7.3,9.9-7.3,17.3h-3.4v16.8l5,5.5-8.1,15.5h-2.3v-6.7h-38.1v23c1-.3,2-.5,3-.5s2.5.2,3.7.7v-16.6h24.7v38.8h-24.7v-2.8c-1.1.4-2.4.7-3.7.7s-2.1-.2-3-.5v9.3h38.1v-38.8h6.3l8.9-16.9,1.4,1.5h2.9v9.3h34.8c1.7,0,2.7,0,3.2.2,0,.2.1.7.1,1.7,0,1.8,0,1.9-3.1,1.9h-8.3v6.7h7.7c1.7,0,2.7,0,3.2.2,0,.2.1.7.1,1.7,0,1.8,0,1.9-2.9,1.9-.8,0-1.6,0-2.4,0h-7.7v6.7h1.9c0,0,8,0,8,0h.1c.4,0,.7,0,.9.1,0,.2.1.7.1,1.7s0,1.7-1,1.8c-.8,0-1.5,0-2.4,0h-7.7v6.9h8c.5,0,1.2,0,2,0,.4,0,.7,0,.9.1,0,.2.1.7.1,1.7,0,1.8,0,1.9-3.1,1.9h-39.5l-5.4-3.8-3.9,5.5,7.1,5h30.9v1.5l-2.2,2.2h-8.9v6.7h11.6l6.2-6v-4.3h4c2.4,0,9.8,0,9.8-8.6s-.4-4.1-1.2-5.4c.7-1.2,1.2-2.8,1.2-5s-.2-2.9-.5-4c1.4-1.3,2.5-3.3,2.5-6.5s-.4-4-1.1-5.2c.9-1.2,1.4-3,1.4-5.3,0-8-4.8-8.6-10.1-8.6h-3.1v-2.6h2.8Z"/>
    <path class="st1" d="M65.6,152.5c2,0,3.7-1.6,3.7-3.7s-1.6-3.7-3.7-3.7-3.7,1.6-3.7,3.7,1.6,3.7,3.7,3.7"/>
  </g>
</svg>