<?xml version="1.0" encoding="UTF-8"?>
<svg id="Layer_1" xmlns="http://www.w3.org/2000/svg" xmlns:xlink="http://www.w3.org/1999/xlink" version="1.1" viewBox="0 0 234 203">
  <!-- Generator: Adobe Illustrator 29.1.0, SVG Export Plug-In . SVG Version: 2.1.0 Build 142)  -->
  <defs>
    <style>
      .st0 {
        fill: none;
      }

      .st1 {
        fill: #d51317;
      }

      .st2 {
        clip-path: url(#clippath-1);
      }

      .st3 {
        clip-path: url(#clippath);
      }
    </style>
    <clipPath id="clippath">
      <rect class="st0" x="18.9" y="20.8" width="194.6" height="162.4"/>
    </clipPath>
    <clipPath id="clippath-1">
      <rect class="st0" x="18.9" y="20.8" width="194.6" height="162.4"/>
    </clipPath>
  </defs>
  <rect class="st1" x="44" y="128.6" width="90.7" height="6.9" transform="translate(-50.6 208.5) rotate(-84.6)"/>
  <polygon class="st1" points="89.3 130.6 48.2 115.7 50.5 109.2 89.4 123.3 143.6 104.7 176.8 120.6 173.8 126.9 143.1 112.2 89.3 130.6"/>
  <g class="st3">
    <path class="st1" d="M44,155.6c-7.6-3.3-14.3-6.2-17.8-7.7,2.2-7.4,12.4-32,30.2-73.3.7-1.5,1.2-2.7,1.6-3.8l17,9.6,3.4-6-20.3-11.5-3.5-2-1.4,3.7c-.2.4-1.4,3.4-3.1,7.2-32.5,75.4-31.8,77.2-30.9,79.4.4.9,1.1,1.6,2,2,.8.3,9.2,4,20.1,8.7.2-2.4,1.2-4.6,2.7-6.4"/>
    <path class="st1" d="M196.5,132.2c-1.9,1.3-4.1,2.1-6.6,2.2l12.3,36.9-54.6-21.7-62.5,23.9c-3.2-1.4-11.4-5-20.8-9.1-.3,2.4-1.3,4.6-2.8,6.3,8.1,3.5,16,7,22.2,9.7l1.3.6,62.7-23.9,65.9,26.1-17-51Z"/>
    <path class="st1" d="M182.9,113.4c1.9-1.3,4.1-2.2,6.6-2.2l-8.5-25.5-22.1-9.4-2.7,6.4,19.2,8.2,7.5,22.5Z"/>
    <path class="st1" d="M88.6,37.4c-.1,2.1-.4,8.1-.4,24.9s22.7,37.4,29.5,41.5c2.8-2.2,8.6-6.8,14.3-12.7,10.1-10.5,15.4-20.2,15.4-28.2,0-15.8-.5-24-.8-27.1l-12.1-8.1h-32.9l-12.9,9.6ZM118.2,111.9l-1.9-1c-.4-.2-8.8-4.7-17.4-12.8-11.6-11-17.7-23.4-17.7-35.9s0-18.6.3-23.1c.1-3.7.2-5.9,2.2-6.8l15.5-11.5h37.3l16.5,11,.2,1.6c0,.3,1,7.8,1,29.5s-32.9,46.8-34.3,47.8l-1.7,1.2Z"/>
  </g>
  <polygon class="st1" points="114.5 74.8 100.2 60.5 105.1 55.6 114.5 65 131.9 47.5 136.8 52.4 114.5 74.8"/>
  <g class="st2">
    <path class="st1" d="M147.5,112.5c-1.1-11.8-2.1-21.3-2.9-28.1-.1-1.1-.3-2.2-.4-3.2l-6,8.6c1.9,17.4,4.3,44.7,5.9,63.9l6.9-.6c0-.2-1.7-20.5-3.5-40.6"/>
    <path class="st1" d="M49.4,163.1c0-2.1,1.7-3.8,3.8-3.8s3.8,1.7,3.8,3.8-1.7,3.8-3.8,3.8-3.8-1.7-3.8-3.8"/>
  </g>
</svg>