<?xml version="1.0" encoding="UTF-8"?>
<svg id="Layer_1" xmlns="http://www.w3.org/2000/svg" xmlns:xlink="http://www.w3.org/1999/xlink" version="1.1" viewBox="0 0 194.4 194.4">
  <!-- Generator: Adobe Illustrator 29.1.0, SVG Export Plug-In . SVG Version: 2.1.0 Build 142)  -->
  <defs>
    <style>
      .st0 {
        fill: none;
      }

      .st1 {
        fill: #d51317;
      }

      .st2 {
        fill: #fff;
      }

      .st3 {
        clip-path: url(#clippath);
      }
    </style>
    <clipPath id="clippath">
      <polygon class="st0" points="3.1 191.2 192.9 192.2 192.9 1.4 2.1 1.4 3.1 191.2"/>
    </clipPath>
  </defs>
  <g class="st3">
    <path class="st1" d="M2.1,192.2h103.9v-.4c48.7-4.3,86.8-45.2,86.8-95S150.2,1.4,97.5,1.4,6.9,39.6,2.6,88.2h-.4v103.9Z"/>
    <path class="st2" d="M160.2,131.9l-2.3,4.7h3.2l2.3-4.7-2.3-4.7h-3.2l2.3,4.7ZM154.8,131.9l-2.3,4.7h3.2l2.3-4.7-2.3-4.7h-3.2l2.3,4.7ZM144.2,127.4c-1.5-.7-3.1-1.1-4.9-1.1s-2.8.3-3.6,1c-.9.7-1.3,1.6-1.3,2.8,0,2,1.3,3.2,4,3.5h1c.7.2,1.2.4,1.5.5.3.2.5.4.5.7,0,.7-.7,1.1-2.2,1.1s-2.8-.4-4-1.1l-1.2,2.4c1.3.9,3,1.4,5.2,1.4s3-.4,3.9-1.1c.9-.7,1.4-1.7,1.4-2.9,0-1.9-1.3-3.1-3.9-3.5l-1-.2c-.3,0-.6,0-.8-.1s-.4,0-.6-.2c-.2,0-.3-.2-.4-.3,0-.1-.1-.3-.1-.4,0-.3.2-.6.5-.8.3-.2.8-.3,1.3-.3,1.2,0,2.4.3,3.7,1l1.1-2.4ZM125.6,124.9h3l-2.4-3.8h-3.8l3.2,3.8ZM128.2,129.6c.4.4.7,1,.9,1.7h-5.2c.1-.7.4-1.3.9-1.7.4-.4,1-.6,1.8-.6s1.2.2,1.7.6M122.3,128c-1.1,1.1-1.6,2.6-1.6,4.5s.6,3.3,1.7,4.4c1.1,1.1,2.6,1.7,4.4,1.7s3.7-.6,5-1.8l-1.8-2c-.9.7-1.9,1.1-3,1.1s-1.4-.2-2-.6c-.5-.4-.9-1-1-1.8h8.3c0-.3,0-.7,0-1.1,0-1.8-.5-3.3-1.6-4.4-1.1-1.1-2.4-1.7-4.1-1.7s-3.2.6-4.3,1.7M110.2,128.1c-1.2,1.2-1.7,2.6-1.7,4.4s.6,3.3,1.7,4.4c1.2,1.2,2.7,1.7,4.5,1.7s3.5-.7,4.7-2.2l-2.2-1.9c-.7.8-1.6,1.2-2.5,1.2s-1.5-.3-2.1-.9c-.6-.6-.8-1.4-.8-2.3s.3-1.7.8-2.3,1.3-.9,2.1-.9,1.8.4,2.5,1.2l2.3-1.9c-.5-.7-1.2-1.3-2-1.6-.8-.4-1.7-.6-2.7-.6-1.9,0-3.4.6-4.5,1.7M97.9,128.1c-1.2,1.2-1.7,2.6-1.7,4.4s.6,3.3,1.7,4.4c1.2,1.2,2.7,1.7,4.5,1.7s3.5-.7,4.7-2.2l-2.2-1.9c-.7.8-1.6,1.2-2.5,1.2s-1.5-.3-2.1-.9c-.6-.6-.8-1.4-.8-2.3s.3-1.7.8-2.3,1.3-.9,2.1-.9,1.8.4,2.5,1.2l2.3-1.9c-.5-.7-1.2-1.3-2-1.6-.8-.4-1.7-.6-2.7-.6-1.9,0-3.4.6-4.5,1.7M93.7,126.6h-3.1v6.4c0,.9-.2,1.6-.7,2-.4.4-1,.6-1.7.6s-1.3-.2-1.7-.6c-.4-.4-.7-1.1-.7-2v-6.4h-3.1v6.7c0,.7,0,1.4.3,2,.2.6.5,1.1.8,1.5.3.4.7.7,1.2,1,.5.3,1,.5,1.5.6.5.1,1.1.2,1.7.2s1.5-.1,2.1-.3c.6-.2,1.2-.5,1.8-.9.5-.4.9-1,1.2-1.7.3-.7.4-1.5.4-2.4v-6.7ZM79.8,122.9c-1.1-.6-2.1-1.1-3.1-1.4s-2.1-.4-3.3-.4-1.8.1-2.6.3c-.8.2-1.5.6-2.1,1-.6.4-1.1,1-1.5,1.7-.4.7-.5,1.5-.5,2.3s.1,1.4.4,2c.3.6.6,1,1.1,1.4.5.4,1,.7,1.6.9.6.2,1.3.4,2.1.5l1.1.2c1.3.2,2.2.5,2.7.7.6.3.8.7.8,1.2s-.3,1.1-.9,1.5c-.6.4-1.4.5-2.4.5s-2-.2-3-.5c-.9-.3-1.8-.8-2.4-1.3l-1.7,2.7c.9.7,2,1.3,3.2,1.6s2.6.6,3.9.6,1.8-.1,2.6-.3c.8-.2,1.6-.6,2.2-1s1.2-1,1.5-1.7c.4-.7.6-1.5.6-2.4,0-2.6-1.8-4.2-5.4-4.7l-1-.2c-.6,0-1-.2-1.4-.3-.4,0-.7-.2-1.1-.4-.3-.1-.6-.3-.8-.5-.2-.2-.2-.5-.2-.8,0-.6.3-1.1.9-1.5.6-.4,1.4-.5,2.3-.5,1.6,0,3.2.5,4.8,1.4l1.6-2.8ZM57.3,126.6h-3.1v6.4c0,.9-.2,1.6-.7,2-.4.4-1,.6-1.7.6s-1.3-.2-1.7-.6c-.4-.4-.7-1.1-.7-2v-6.4h-3.1v6.7c0,.7,0,1.4.3,2,.2.6.5,1.1.8,1.5.3.4.7.7,1.2,1,.5.3,1,.5,1.5.6.5.1,1.1.2,1.7.2s1.5-.1,2.1-.3c.6-.2,1.2-.5,1.7-.9.5-.4.9-1,1.2-1.7.3-.7.4-1.5.4-2.4v-6.7ZM39.2,130.2c.6.6.8,1.4.8,2.3s-.3,1.7-.8,2.3c-.6.6-1.3.9-2.2.9s-1.6-.3-2.2-.9c-.6-.6-.8-1.4-.8-2.3s.3-1.7.8-2.3c.6-.6,1.3-.9,2.2-.9s1.6.3,2.2.9M32.4,128.1c-1.1,1.2-1.6,2.6-1.6,4.4s.5,3.2,1.6,4.4c1.1,1.2,2.4,1.8,4,1.8s2.6-.5,3.5-1.6v1.3h3.1v-17.4h-3.1v6.9c-.9-1-2-1.5-3.4-1.5s-3,.6-4,1.8"/>
    <path class="st2" d="M150.9,96.3c-1.5-.7-3.1-1.1-4.9-1.1s-2.8.3-3.6,1c-.9.7-1.3,1.6-1.3,2.8,0,2,1.3,3.2,4,3.5h1c.7.2,1.2.4,1.5.5.3.2.5.4.5.7,0,.7-.7,1.1-2.2,1.1s-2.8-.4-4-1.1l-1.2,2.4c1.3.9,3,1.4,5.2,1.4s3-.4,3.9-1.1c.9-.7,1.4-1.7,1.4-2.9,0-1.9-1.3-3.1-3.9-3.5l-1-.2c-.3,0-.6,0-.8-.1-.2,0-.4,0-.6-.2-.2,0-.3-.2-.4-.3,0-.1-.1-.3-.1-.4,0-.3.2-.6.5-.8.3-.2.8-.3,1.3-.3,1.2,0,2.4.3,3.7,1l1.1-2.4ZM134.1,93.8l3.2-3.8h-3.8l-2.4,3.8h3ZM134.9,98.5c.4.4.7,1,.9,1.7h-5.2c.1-.7.4-1.3.9-1.7.4-.4,1-.6,1.8-.6s1.2.2,1.7.6M129,96.9c-1.1,1.1-1.6,2.6-1.6,4.5s.6,3.3,1.7,4.4c1.1,1.1,2.6,1.7,4.4,1.7s3.7-.6,5-1.8l-1.8-2c-.9.7-1.9,1.1-3,1.1s-1.4-.2-2-.6c-.5-.4-.9-1-1-1.8h8.3c0-.3,0-.7,0-1.1,0-1.8-.5-3.3-1.6-4.4-1.1-1.1-2.4-1.7-4.1-1.7s-3.2.6-4.3,1.7M124.8,89.8h-3.1v17.4h3.1v-17.4ZM110.2,96.9c-1.2,1.2-1.7,2.6-1.7,4.4s.6,3.3,1.7,4.4c1.2,1.2,2.7,1.7,4.5,1.7s3.5-.7,4.7-2.2l-2.2-1.9c-.7.8-1.6,1.2-2.5,1.2s-1.5-.3-2.1-.9c-.6-.6-.8-1.4-.8-2.3s.3-1.7.8-2.3c.6-.6,1.3-.9,2.1-.9s1.8.4,2.5,1.2l2.3-1.9c-.5-.7-1.2-1.3-2-1.6s-1.7-.6-2.7-.6c-1.8,0-3.3.6-4.5,1.7M100.4,96.3c-1.5-.7-3.1-1.1-4.9-1.1s-2.8.3-3.6,1c-.9.7-1.3,1.6-1.3,2.8,0,2,1.3,3.2,4,3.5h1c.7.2,1.2.4,1.5.5.3.2.5.4.5.7,0,.7-.7,1.1-2.2,1.1s-2.8-.4-4-1.1l-1.2,2.4c1.3.9,3,1.4,5.2,1.4s3-.4,3.9-1.1c.9-.7,1.4-1.7,1.4-2.9,0-1.9-1.3-3.1-3.9-3.5l-1-.2c-.3,0-.6,0-.8-.1-.2,0-.4,0-.6-.2-.2,0-.3-.2-.4-.3,0-.1-.1-.3-.1-.4,0-.3.2-.6.5-.8.3-.2.8-.3,1.3-.3,1.2,0,2.4.3,3.7,1l1.1-2.4ZM84.4,98.5c.4.4.7,1,.9,1.7h-5.2c.1-.7.4-1.3.9-1.7.4-.4,1-.6,1.8-.6s1.2.2,1.7.6M78.5,96.9c-1.1,1.1-1.6,2.6-1.6,4.5s.6,3.3,1.7,4.4c1.1,1.1,2.6,1.7,4.4,1.7s3.7-.6,5-1.8l-1.8-2c-.9.7-1.9,1.1-3,1.1s-1.4-.2-2-.6c-.5-.4-.9-1-1-1.8h8.3c0-.3,0-.7,0-1.1,0-1.8-.5-3.3-1.6-4.4-1.1-1.1-2.4-1.7-4.1-1.7s-3.2.6-4.3,1.7M75.5,104.1h-8.9v-13.7h-3.4v16.9h12.3v-3.1ZM46.5,100.8l2.3-4.7h-3.2l-2.3,4.7,2.3,4.7h3.2l-2.3-4.7ZM51.9,100.8l2.3-4.7h-3.2l-2.3,4.7,2.3,4.7h3.2l-2.3-4.7Z"/>
    <path class="st2" d="M133.7,67.7h-9.9v-5.5h9.4v-2h-9.4v-5.4h9.7v-2h-11.9v16.9h12v-2ZM115.7,52.8h-2.1v16.9h2.1v-16.9ZM102.7,54.8c2.5,0,3.8.9,3.8,2.8s-1.3,2.9-3.8,2.9h-4.5v-5.7h4.5ZM96,52.8v16.9h2.1v-7.3h2l5.8,7.3h2.6l-5.9-7.3h.1c1.8,0,3.2-.4,4.3-1.3,1.1-.9,1.6-2,1.6-3.5s-.5-2.7-1.5-3.6c-1-.8-2.5-1.2-4.4-1.2h-6.7ZM84.5,51.4l3-3.6h-2.5l-2.5,3.6h1.9ZM90.5,67.7h-9.9v-5.5h9.4v-2h-9.4v-5.4h9.7v-2h-11.9v16.9h12v-2ZM73.1,54.4c-1.8-1.2-3.8-1.8-6.1-1.8s-2.3.2-3.2.6c-1,.4-1.7,1-2.3,1.7-.6.8-.9,1.7-.9,2.8s.1,1.3.4,1.9c.3.5.6,1,1.1,1.4.5.4,1,.6,1.6.9.6.2,1.2.4,2,.4l1.6.2c1.4.2,2.4.5,3,.9.7.4,1,1,1,1.8s-.4,1.6-1.3,2.2c-.8.5-1.9.8-3.2.8s-2.1-.2-3.1-.5c-1-.4-1.8-.8-2.4-1.3l-1.2,1.7c.8.7,1.8,1.2,3,1.6s2.4.6,3.6.6,1.8-.1,2.6-.3c.8-.2,1.5-.5,2.1-1,.6-.4,1.1-1,1.5-1.6.4-.7.5-1.4.5-2.2,0-2.6-1.8-4.1-5.3-4.5l-1.5-.2c-1.3-.2-2.3-.5-2.9-.9-.6-.4-.9-1-.9-1.8s.4-1.6,1.2-2.1c.8-.5,1.8-.8,3.1-.8,1.8,0,3.5.5,5,1.6l1.1-1.7Z"/>
  </g>
</svg>