<?xml version="1.0" encoding="UTF-8"?>
<svg id="Layer_1" xmlns="http://www.w3.org/2000/svg" version="1.1" viewBox="0 0 141.7 141.7">
  <!-- Generator: Adobe Illustrator 29.1.0, SVG Export Plug-In . SVG Version: 2.1.0 Build 142)  -->
  <defs>
    <style>
      .st0 {
        fill: #a8a8a7;
      }
    </style>
  </defs>
  <path class="st0" d="M77.7,63.3v-7.3h-11v7.3h-7.3v11h7.3v7.3h11v-7.3h7.3v-11h-7.3ZM81.3,70.7h-7.3v7.3h-3.7v-7.3h-7.3v-3.7h7.3v-7.3h3.7v7.3h7.3v3.7Z"/>
  <path class="st0" d="M47.5,44.4l24.4-6.4,24.8,6.4v32.6c0,12.8-20.2,22.3-24.2,24-1.9-.9-7.2-3.5-12.4-7.2-5.7-4.1-12.6-10.3-12.6-17.1v-11.3c-.6.2-1.3.4-2,.4s-1.1,0-1.6-.2v11.2c0,15.7,26.7,27.5,27.9,27.9l.7.3.7-.3c1.1-.4,27.2-11.1,27.2-27.8v-35.5l-28.4-7.3-28.1,7.3"/>
  <rect class="st0" x="70.1" y="36.1" width="3.7" height="11.7"/>
  <rect class="st0" x="70.6" y="89.4" width="3.7" height="13.7"/>
  <rect class="st0" x="43.8" y="64.1" width="10.5" height="3.7"/>
  <rect class="st0" x="88.6" y="64.9" width="9.6" height="3.7"/>
  <path class="st0" d="M71.9,25.3l-35.5,9.3v44.8c0,19.8,34,34.8,35.5,35.4l.7.3.7-.3c.3-.1,5.6-2.3,12.1-6.1-.9-.8-1.5-2-1.8-3.2-5,3-9.3,5-11,5.7-2.2-1-9.2-4.4-16.2-9.3-7.5-5.3-16.4-13.5-16.4-22.4v-42l31.9-8.3,32.3,8.3v42.3c0,7.7-5.5,14.5-12,19.7,1.1.6,1.9,1.6,2.4,2.8,8.8-7.2,13.3-14.7,13.3-22.5v-45.1l-36-9.2Z"/>
  <circle class="st0" cx="88.9" cy="104.4" r="2"/>
</svg>